<svg width="1440" height="3162" viewBox="0 0 1440 3162" fill="none" xmlns="http://www.w3.org/2000/svg">
<g clip-path="url(#clip0)">
<rect x="0.5" y="0.5" width="1439" height="3161" fill="#F0F2ED"/>
<path fill-rule="evenodd" clip-rule="evenodd" d="M1628.43 1033.03C1602.69 1085.59 1579.5 1143.9 1516.08 1167.87C1454.22 1191.25 1371.02 1184.86 1299.75 1157.26C1237.3 1133.07 1217.37 1069.21 1164.23 1031.61C1113.06 995.398 1040.31 987.267 998.659 944.19C944.436 888.106 881.447 818.146 900.162 758.479C918.825 698.981 1018.9 694.995 1085.37 667.74C1148.48 641.866 1202.22 581.623 1278.56 603.334C1357.31 625.733 1362.17 722.142 1429.7 765.67C1501.64 812.046 1622.59 792.4 1669.23 855.155C1713.82 915.134 1655.86 977.039 1628.43 1033.03Z" stroke="#DCE2E2" stroke-width="7"/>
<path fill-rule="evenodd" clip-rule="evenodd" d="M1682.83 1028.29C1657.09 1080.85 1633.9 1139.15 1570.47 1163.13C1508.61 1186.5 1425.41 1180.12 1354.15 1152.52C1291.7 1128.33 1271.76 1064.47 1218.62 1026.86C1167.45 990.653 1094.7 982.523 1053.05 939.446C998.83 883.362 935.841 813.402 954.557 753.735C973.219 694.237 1073.29 690.251 1139.77 662.996C1202.87 637.122 1256.62 576.879 1332.95 598.59C1411.71 620.989 1416.56 717.398 1484.09 760.926C1556.04 807.302 1676.98 787.656 1723.63 850.41C1768.21 910.39 1710.25 972.295 1682.83 1028.29Z" stroke="#DCE2E2" stroke-width="7"/>
<path fill-rule="evenodd" clip-rule="evenodd" d="M1751.59 1027.63C1725.85 1080.19 1702.66 1138.49 1639.23 1162.47C1577.37 1185.85 1494.17 1179.46 1422.91 1151.86C1360.46 1127.67 1340.52 1063.81 1287.38 1026.2C1236.21 989.995 1163.46 981.864 1121.81 938.787C1067.59 882.703 1004.6 812.743 1023.32 753.076C1041.98 693.578 1142.05 689.592 1208.53 662.337C1271.63 636.463 1325.38 576.22 1401.71 597.931C1480.47 620.33 1485.32 716.739 1552.85 760.267C1624.8 806.643 1745.74 786.997 1792.39 849.752C1836.97 909.731 1779.01 971.636 1751.59 1027.63Z" stroke="#DCE2E2" stroke-width="7"/>
<path fill-rule="evenodd" clip-rule="evenodd" d="M206.345 1891.24C167.795 1935.26 130.21 1985.51 62.7261 1992.12C-3.08528 1998.57 -81.7457 1970.71 -143.353 1925.49C-197.341 1885.86 -199.938 1819.01 -241.441 1768.85C-281.4 1720.56 -349.518 1693.75 -378.498 1641.3C-416.227 1573.02 -458.803 1489.06 -425.181 1436.34C-391.655 1383.76 -294.001 1406 -222.721 1397.01C-155.052 1388.48 -87.4638 1344.33 -19.4253 1385.19C50.7682 1427.34 30.3234 1521.69 84.1724 1581.31C141.544 1644.84 263.426 1657.4 292.102 1730.14C319.509 1799.67 247.417 1844.32 206.345 1891.24Z" stroke="#DCE2E2" stroke-width="7"/>
<path fill-rule="evenodd" clip-rule="evenodd" d="M260.093 1900.83C221.543 1944.86 183.958 1995.11 116.474 2001.72C50.6628 2008.17 -27.9976 1980.31 -89.6045 1935.09C-143.593 1895.46 -146.19 1828.61 -187.692 1778.45C-227.652 1730.16 -295.77 1703.35 -324.75 1650.9C-362.479 1582.62 -405.055 1498.66 -371.433 1445.94C-337.907 1393.36 -240.252 1415.6 -168.973 1406.61C-101.304 1398.08 -33.7158 1353.93 34.3228 1394.79C104.516 1436.94 84.0715 1531.28 137.92 1590.91C195.292 1654.44 317.174 1667 345.85 1739.74C373.258 1809.27 301.165 1853.92 260.093 1900.83Z" stroke="#DCE2E2" stroke-width="7"/>
<path fill-rule="evenodd" clip-rule="evenodd" d="M326.649 1918.12C288.1 1962.15 250.515 2012.4 183.031 2019.01C117.219 2025.46 38.559 1997.6 -23.0478 1952.38C-77.0363 1912.75 -79.6336 1845.9 -121.136 1795.74C-161.095 1747.45 -229.214 1720.63 -258.193 1668.19C-295.923 1599.91 -338.498 1515.95 -304.876 1463.22C-271.35 1410.65 -173.696 1432.88 -102.416 1423.9C-34.7472 1415.37 32.8409 1371.22 100.879 1412.08C171.073 1454.23 150.628 1548.57 204.477 1608.2C261.849 1671.72 383.731 1684.28 412.406 1757.03C439.814 1826.55 367.722 1871.21 326.649 1918.12Z" stroke="#DCE2E2" stroke-width="7"/>
<path fill-rule="evenodd" clip-rule="evenodd" d="M1720.4 3086.81C1669.08 3114.94 1616.54 3149.24 1550.88 3132.29C1486.86 3115.76 1422.53 3062.61 1380.18 2998.99C1343.07 2943.24 1363.57 2879.56 1341.8 2818.21C1320.84 2759.13 1266.05 2710.57 1256.83 2651.37C1244.82 2574.29 1233.64 2480.82 1283.31 2442.83C1332.85 2404.95 1416.94 2459.35 1486.98 2475.37C1553.46 2490.58 1632.1 2472.3 1681.98 2534.02C1733.45 2597.7 1681.88 2679.3 1711.99 2753.78C1744.08 2833.14 1854.26 2886.76 1856.23 2964.93C1858.12 3039.64 1775.08 3056.84 1720.4 3086.81Z" stroke="#DCE2E2" stroke-width="7"/>
<path fill-rule="evenodd" clip-rule="evenodd" d="M1767.59 3114.27C1716.27 3142.4 1663.73 3176.7 1598.08 3159.75C1534.05 3143.22 1469.72 3090.07 1427.37 3026.45C1390.26 2970.7 1410.76 2907.02 1388.99 2845.67C1368.03 2786.59 1313.25 2738.03 1304.02 2678.83C1292.01 2601.75 1280.83 2508.28 1330.51 2470.29C1380.04 2432.41 1464.13 2486.81 1534.17 2502.83C1600.65 2518.03 1679.29 2499.76 1729.18 2561.48C1780.64 2625.16 1729.07 2706.76 1759.19 2781.24C1791.28 2860.6 1901.45 2914.22 1903.42 2992.38C1905.31 3067.1 1822.27 3084.3 1767.59 3114.27Z" stroke="#DCE2E2" stroke-width="7"/>
<path fill-rule="evenodd" clip-rule="evenodd" d="M1824.18 3153.35C1772.86 3181.48 1720.31 3215.77 1654.66 3198.83C1590.63 3182.3 1526.31 3129.14 1483.96 3065.53C1446.84 3009.78 1467.34 2946.1 1445.57 2884.74C1424.61 2825.67 1369.83 2777.11 1360.61 2717.91C1348.6 2640.83 1337.42 2547.35 1387.09 2509.37C1436.62 2471.49 1520.72 2525.88 1590.75 2541.9C1657.24 2557.11 1735.87 2538.83 1785.76 2600.56C1837.23 2664.24 1785.65 2745.83 1815.77 2820.32C1847.86 2899.68 1958.03 2953.29 1960 3031.46C1961.89 3106.17 1878.85 3123.38 1824.18 3153.35Z" stroke="#DCE2E2" stroke-width="7"/>
<path fill-rule="evenodd" clip-rule="evenodd" d="M1270.09 2023.49C1230.91 1993.52 1186.24 1965.42 1179.8 1902.22C1173.51 1840.58 1197.37 1761.49 1236.7 1695.97C1271.16 1638.56 1330.11 1625.9 1373.97 1578.76C1416.21 1533.37 1439.24 1464.47 1485.24 1428.9C1545.12 1382.59 1618.79 1329.27 1665.6 1353.23C1712.29 1377.11 1693.56 1473.42 1702.13 1539.87C1710.27 1602.96 1749.83 1660.54 1714.41 1731.51C1677.86 1804.72 1594.46 1799.65 1542.36 1859.98C1486.84 1924.26 1476.87 2042.15 1412.97 2080.52C1351.89 2117.2 1311.85 2055.42 1270.09 2023.49Z" stroke="#DCE2E2" stroke-width="7"/>
<path fill-rule="evenodd" clip-rule="evenodd" d="M1262.12 2076.1C1222.93 2046.13 1178.27 2018.03 1171.82 1954.82C1165.54 1893.19 1189.39 1814.09 1228.72 1748.58C1263.18 1691.17 1322.13 1678.5 1365.99 1631.36C1408.23 1585.98 1431.26 1517.07 1477.26 1481.5C1537.14 1435.19 1610.81 1381.88 1657.63 1405.83C1704.31 1429.72 1685.58 1526.02 1694.15 1592.48C1702.29 1655.56 1741.85 1713.14 1706.43 1784.11C1669.88 1857.33 1586.48 1852.26 1534.38 1912.59C1478.86 1976.87 1468.9 2094.75 1404.99 2133.13C1343.91 2169.81 1303.87 2108.02 1262.12 2076.1Z" stroke="#DCE2E2" stroke-width="7"/>
<path fill-rule="evenodd" clip-rule="evenodd" d="M1247.47 2142.06C1208.28 2112.09 1163.62 2083.99 1157.18 2020.79C1150.89 1959.15 1174.75 1880.06 1214.07 1814.54C1248.54 1757.13 1307.48 1744.47 1351.35 1697.33C1393.58 1651.94 1416.62 1583.04 1462.61 1547.47C1522.5 1501.16 1596.17 1447.84 1642.98 1471.8C1689.66 1495.68 1670.93 1591.99 1679.51 1658.44C1687.65 1721.53 1727.21 1779.11 1691.78 1850.08C1655.24 1923.29 1571.84 1918.23 1519.73 1978.56C1464.22 2042.83 1454.25 2160.72 1390.35 2199.09C1329.27 2235.78 1289.22 2173.99 1247.47 2142.06Z" stroke="#DCE2E2" stroke-width="7"/>
<path fill-rule="evenodd" clip-rule="evenodd" d="M-106.013 2334.71C-56.7287 2336.89 -4.01997 2334.41 37.4044 2382.58C77.8021 2429.55 103.453 2508.08 108.645 2584.32C113.195 2651.13 72.0779 2695.22 63.0405 2758.97C54.339 2820.35 74.8391 2890.05 57.4405 2945.54C34.7887 3017.77 4.82863 3103.63 -47.2729 3110.75C-99.2262 3117.84 -138.927 3028.12 -183.956 2978.5C-226.704 2931.4 -292.079 2906.78 -303.595 2828.3C-315.476 2747.34 -244.154 2703.81 -235.9 2624.52C-227.105 2540.05 -286.328 2437.63 -255.841 2369.61C-226.703 2304.59 -158.521 2332.39 -106.013 2334.71Z" stroke="#DCE2E2" stroke-width="7"/>
<path fill-rule="evenodd" clip-rule="evenodd" d="M-129.546 2286.99C-80.2619 2289.17 -27.5532 2286.69 13.8712 2334.86C54.2689 2381.83 79.9194 2460.36 85.1118 2536.6C89.6621 2603.41 48.5447 2647.5 39.5073 2711.25C30.8058 2772.63 51.3058 2842.33 33.9073 2897.81C11.2555 2970.05 -18.7046 3055.91 -70.8061 3063.03C-122.759 3070.12 -162.461 2980.4 -207.489 2930.78C-250.237 2883.68 -315.613 2859.06 -327.129 2780.58C-339.009 2699.61 -267.687 2656.09 -259.433 2576.8C-250.638 2492.33 -309.861 2389.91 -279.374 2321.89C-250.236 2256.87 -182.055 2284.67 -129.546 2286.99Z" stroke="#DCE2E2" stroke-width="7"/>
<path fill-rule="evenodd" clip-rule="evenodd" d="M-155.247 2224.5C-105.963 2226.68 -53.2543 2224.2 -11.8299 2272.36C28.5677 2319.34 54.2183 2397.87 59.4107 2474.1C63.961 2540.91 22.8435 2585.01 13.8061 2648.76C5.10467 2710.14 25.6047 2779.84 8.20617 2835.32C-14.4457 2907.56 -44.4057 2993.42 -96.5073 3000.53C-148.461 3007.63 -188.162 2917.91 -233.19 2868.29C-275.938 2821.18 -341.314 2796.56 -352.83 2718.09C-364.711 2637.12 -293.389 2593.6 -285.134 2514.31C-276.339 2429.83 -335.562 2327.42 -305.076 2259.39C-275.937 2194.38 -207.756 2222.17 -155.247 2224.5Z" stroke="#DCE2E2" stroke-width="7"/>
<path d="M1378.05 212.73L1371 217.167L1393.9 231.611L1371 246.056L1378.05 250.493L1408.05 231.611L1378.05 212.73Z" fill="white" fill-opacity="0.3"/>
<path d="M63.0008 250.493L70.0508 246.056L47.1508 231.611L70.0508 217.167L63.0008 212.73L33.0008 231.611L63.0008 250.493Z" fill="white" fill-opacity="0.3"/>
</g>
<rect x="0.5" y="0.5" width="1439" height="3161" stroke="white"/>
<defs>
<clipPath id="clip0">
</clipPath>
</defs>
</svg>
